<svg width="59" height="51" viewBox="0 0 59 51" fill="none" xmlns="http://www.w3.org/2000/svg">
<path d="M17.397 44.1208C18.8767 44.121 20.0796 45.3249 20.0796 46.8142C20.0795 48.3034 18.8766 49.5074 17.397 49.5076C15.9172 49.5076 14.7144 48.3035 14.7144 46.8142C14.7144 45.3248 15.9172 44.1208 17.397 44.1208Z" stroke="#55736C" stroke-width="1.1381"/>
<path d="M49.9143 44.1208C51.394 44.121 52.5969 45.3249 52.5969 46.8142C52.5969 48.3034 51.394 49.5074 49.9143 49.5076C48.4345 49.5076 47.2318 48.3035 47.2317 46.8142C47.2317 45.3248 48.4345 44.1208 49.9143 44.1208Z" stroke="#55736C" stroke-width="1.1381"/>
<path d="M1.13818 1.13812H9.2675L10.1966 6.03197M56.4176 41.9202H13.3026C11.0741 41.9202 9.2675 40.1137 9.2675 37.8852C9.2675 36.3587 10.1288 34.963 11.4932 34.2785L15.771 32.1325H15.1516M10.1966 6.03197H56.4031C57.1972 6.03197 57.7471 6.82468 57.4691 7.56853L48.5647 31.3929C48.3984 31.8377 47.9735 32.1325 47.4986 32.1325H15.1516M10.1966 6.03197L15.1516 32.1325" stroke="#55736C" stroke-width="2.27621" stroke-linecap="round"/>
</svg>
