<svg width="22" height="22" viewBox="0 0 22 22" fill="none" xmlns="http://www.w3.org/2000/svg">
<path d="M21.7306 20.4331L16.7873 15.4898C18.1837 13.7971 18.9424 11.6914 18.9424 9.47347C18.9424 6.94122 17.9592 4.56612 16.1678 2.77469C14.3808 0.983265 12.0012 0 9.47347 0C6.94571 0 4.56612 0.983265 2.77469 2.77469C0.983265 4.56163 0 6.94122 0 9.47347C0 12.0012 0.983265 14.3808 2.77469 16.1722C4.56163 17.9592 6.94122 18.9469 9.47347 18.9469C11.6959 18.9469 13.8016 18.1882 15.4898 16.7918L20.4331 21.7306C20.7922 22.0898 21.3714 22.0898 21.7306 21.7306C22.0898 21.3714 22.0898 20.7922 21.7306 20.4331ZM4.07224 14.8702C2.62653 13.429 1.83184 11.5118 1.83184 9.47347C1.83184 7.4351 2.62653 5.51347 4.06776 4.07224C5.50898 2.63102 7.42612 1.83633 9.46898 1.83633C11.5073 1.83633 13.429 2.63102 14.8702 4.07224C16.3114 5.51347 17.1061 7.43061 17.1061 9.47347C17.1061 11.5118 16.3114 13.4335 14.8702 14.8747C13.429 16.3159 11.5073 17.1106 9.46898 17.1106C7.43061 17.1106 5.51347 16.3159 4.07224 14.8702Z" fill="#9497A8"/>
</svg>
