<svg width="25" height="25" viewBox="0 0 25 25" fill="none" xmlns="http://www.w3.org/2000/svg">
<path d="M0.455406 0.965225C0.633287 0.459303 1.18762 0.193356 1.69355 0.371237L2.08378 0.508424C2.882 0.789027 3.55996 1.02736 4.09348 1.28915C4.66397 1.56907 5.15318 1.9139 5.52111 2.45232C5.88619 2.98657 6.03692 3.57271 6.10649 4.21538C6.13763 4.50306 6.15406 4.82149 6.16272 5.17148H19.9361C22.1177 5.17148 24.0815 5.17148 24.6562 5.91864C25.2311 6.6658 25.0063 7.79158 24.5569 10.0432L23.9098 13.1825C23.5019 15.162 23.2978 16.1517 22.5835 16.7338C21.8692 17.3159 20.8587 17.3159 18.8377 17.3159H11.9719C8.36108 17.3159 6.55566 17.3159 5.43392 16.1328C4.31217 14.9495 4.23031 13.6928 4.23031 9.88424V6.51581C4.23031 5.55779 4.22899 4.91663 4.1757 4.42437C4.12478 3.95394 4.03453 3.71905 3.91767 3.54803C3.80366 3.3812 3.6306 3.22527 3.238 3.03265C2.82002 2.82755 2.25196 2.62616 1.3876 2.32226L1.04941 2.20336C0.543473 2.02549 0.277539 1.47116 0.455406 0.965225Z" fill="white"/>
<path d="M7.46732 20.708C8.5399 20.708 9.40939 21.5776 9.40939 22.6501C9.40939 23.7226 8.5399 24.5922 7.46732 24.5922C6.39474 24.5922 5.52525 23.7226 5.52525 22.6501C5.52525 21.5776 6.39474 20.708 7.46732 20.708Z" fill="white"/>
<path d="M19.1198 20.7082C20.1923 20.7082 21.0618 21.5776 21.0618 22.6502C21.0618 23.7228 20.1923 24.5923 19.1198 24.5923C18.0472 24.5923 17.1777 23.7228 17.1777 22.6502C17.1777 21.5776 18.0472 20.7082 19.1198 20.7082Z" fill="white"/>
</svg>
