<svg width="25" height="25" viewBox="0 0 25 25" fill="none" xmlns="http://www.w3.org/2000/svg">
<path d="M18.4432 14.5465C18.137 14.4014 16.6704 13.6762 16.3965 13.5634C16.1225 13.4506 15.9291 13.4183 15.7196 13.7245C15.5101 14.0307 14.946 14.6915 14.7687 14.901C14.5914 15.1105 14.4303 15.1266 14.1241 14.901C13.2446 14.5481 12.4323 14.0465 11.7228 13.4183C11.0805 12.8136 10.5367 12.1121 10.1112 11.3394C9.93388 11.0493 10.1112 10.8881 10.2401 10.7269C10.369 10.5658 10.5302 10.3885 10.6913 10.2112C10.8092 10.0579 10.9067 9.88998 10.9814 9.71162C11.0214 9.62868 11.0422 9.53778 11.0422 9.4457C11.0422 9.35363 11.0214 9.26273 10.9814 9.17979C10.9814 9.03474 10.3046 7.56818 10.0467 6.97188C9.78884 6.37558 9.56321 6.45616 9.38594 6.45616H8.74129C8.4342 6.46813 8.1444 6.60144 7.93548 6.82683C7.59827 7.14863 7.33116 7.53661 7.1509 7.96646C6.97064 8.39631 6.88111 8.85877 6.88794 9.32483C6.97037 10.469 7.39109 11.5629 8.09665 12.4675C9.39137 14.3908 11.1627 15.9456 13.2377 16.98C13.9468 17.2862 14.4947 17.4635 14.9299 17.6085C15.5409 17.7932 16.1868 17.8319 16.8155 17.7213C17.233 17.6366 17.6287 17.467 17.978 17.2231C18.3274 16.9791 18.6228 16.666 18.8461 16.3031C19.0319 15.855 19.0932 15.365 19.0234 14.8849C18.9428 14.7721 18.7494 14.6915 18.4432 14.5465Z" fill="#35B6D2"/>
<path d="M21.4569 3.57137C20.3423 2.44628 19.0138 1.55577 17.5496 0.952365C16.0853 0.34896 14.5151 0.0448793 12.9315 0.0580585C10.8336 0.0690367 8.77536 0.630233 6.96228 1.6856C5.14919 2.74096 3.64473 4.25355 2.59915 6.0723C1.55357 7.89105 1.00348 9.9523 1.00381 12.0502C1.00414 14.148 1.55488 16.2091 2.60102 18.0275L0.98941 24.2323L7.33917 22.6206C9.09459 23.5759 11.0619 24.0746 13.0604 24.0711H12.9315C15.3133 24.0866 17.6458 23.3924 19.6315 22.077C21.6172 20.7615 23.1661 18.8845 24.0807 16.6852C24.9954 14.4859 25.2343 12.0641 24.767 9.72851C24.2997 7.39291 23.1473 5.24942 21.4569 3.57137ZM12.9315 22.0082C11.1435 22.0096 9.38871 21.525 7.85488 20.6061L7.50033 20.3966L3.72915 21.3797L4.72835 17.7052L4.50273 17.3346C3.21562 15.2617 2.73416 12.7886 3.14969 10.3843C3.56523 7.98007 4.84884 5.81198 6.757 4.29142C8.66515 2.77086 11.0651 2.00363 13.5014 2.1353C15.9378 2.26696 18.241 3.28837 19.9742 5.00571C20.9034 5.92738 21.6398 7.02475 22.1406 8.23388C22.6414 9.44302 22.8966 10.7397 22.8912 12.0485C22.887 14.6886 21.8363 17.2195 19.9694 19.0864C18.1025 20.9533 15.5716 22.004 12.9315 22.0082Z" fill="#35B6D2"/>
</svg>
