<svg width="269" height="37" viewBox="0 0 269 37" fill="none" xmlns="http://www.w3.org/2000/svg">
<path d="M254.779 24.6443C254.535 20.8121 254.129 18.3176 253.559 17.1607C253.288 16.6094 253.022 16.3337 252.759 16.3337C252.488 16.3337 252.163 16.8082 251.783 17.7572C251.404 18.7062 251.196 20.8573 251.16 24.2105V25.3629C251.169 25.8328 251.173 26.2893 251.173 26.7321C251.173 27.166 251.155 27.4868 251.119 27.6947C250.992 28.0834 250.568 28.3635 249.845 28.5353C249.411 28.6347 248.968 28.6844 248.516 28.6844C248.209 28.6844 247.779 28.6437 247.228 28.5624C246.686 28.4901 246.265 28.2415 245.967 27.8167C245.886 27.654 245.845 27.2112 245.845 26.4881C245.845 26.1537 245.863 25.5165 245.899 24.5765C245.936 23.6275 246.089 22.1859 246.36 20.2518C246.641 18.3086 247.052 16.4648 247.594 14.7204C248.145 12.967 248.855 11.6565 249.723 10.7888C250.482 10.0838 251.3 9.70874 252.176 9.66355H252.366C253.18 9.66355 253.975 9.99344 254.752 10.6532C255.231 11.0871 255.625 11.5842 255.932 12.1445C256.248 12.7049 256.524 13.3059 256.759 13.9476C256.813 14.0923 256.863 14.2504 256.908 14.4222C256.98 14.7204 257.084 14.9825 257.22 15.2085C257.337 15.0639 257.459 14.8741 257.586 14.6391C257.658 14.5125 257.73 14.395 257.803 14.2866C258.761 12.9128 259.818 12.0587 260.975 11.7243C261.391 11.6068 261.802 11.548 262.209 11.548C262.941 11.548 263.745 11.792 264.622 12.2801C265.508 12.7682 266.303 13.7127 267.008 15.1136C267.713 16.5145 268.084 18.2589 268.12 20.3467V20.5094C268.12 21.3589 268.052 22.1905 267.916 23.0039C267.781 23.8083 267.605 24.6263 267.388 25.4578C267.198 26.0452 266.827 26.3887 266.276 26.4881C266.104 26.5243 265.928 26.5423 265.747 26.5423C265.386 26.5423 264.979 26.4565 264.527 26.2848C264.075 26.104 263.777 25.8419 263.632 25.4984C263.614 25.4261 263.605 25.3312 263.605 25.2137C263.605 25.0691 263.623 24.8567 263.659 24.5765C263.705 24.2964 263.763 23.9755 263.836 23.614C263.89 23.3699 263.931 23.1711 263.958 23.0175C264.039 22.4842 264.08 21.9284 264.08 21.3499C264.08 20.8799 264.053 20.3919 263.998 19.8857C263.818 18.5029 263.542 17.5177 263.171 16.9302C262.945 16.5778 262.71 16.4015 262.466 16.4015C262.295 16.4015 262.055 16.5461 261.748 16.8353C261.45 17.1155 261.129 18.0555 260.785 19.6553C260.596 20.5952 260.451 21.5262 260.351 22.4481C260.252 23.3699 260.175 24.1472 260.121 24.7799C260.076 25.3945 260.04 25.756 260.013 25.8645C259.814 26.2531 259.366 26.4972 258.67 26.5966C258.309 26.6418 257.965 26.6644 257.64 26.6644C257.351 26.6644 257.075 26.6463 256.813 26.6101C256.551 26.574 256.284 26.5107 256.013 26.4203C255.742 26.3299 255.516 26.2215 255.335 26.095C255.082 25.9052 254.924 25.7108 254.861 25.512C254.807 25.3041 254.779 25.0149 254.779 24.6443Z" fill="#35B6D2"/>
<path d="M233.528 20.5907C233.42 20.5094 233.316 20.4325 233.216 20.3602C232.918 20.1704 232.611 19.8722 232.294 19.4655C231.969 19.0316 231.743 18.4984 231.617 17.8657C231.58 17.6036 231.562 17.3505 231.562 17.1065C231.562 16.6817 231.635 16.2207 231.779 15.7236C231.924 15.2175 232.154 14.7294 232.471 14.2595C233.257 13.0483 234.26 12.0858 235.48 11.3718C236.71 10.6487 238.102 10.1471 239.656 9.86691L240.009 9.78557C240.289 9.71326 240.555 9.67259 240.808 9.66355H240.89C241.107 9.66355 241.301 9.72682 241.473 9.85335C241.816 10.1787 242.096 10.6758 242.313 11.3447C242.503 11.905 242.598 12.4654 242.598 13.0258C242.598 13.1342 242.593 13.2427 242.584 13.3511C242.521 14.0561 242.322 14.508 241.988 14.7069C241.663 14.8967 241.233 15.0096 240.7 15.0458C240.429 15.0729 240.135 15.1181 239.819 15.1814C238.816 15.3892 238.101 15.5881 237.677 15.7779C237.261 15.9677 237.049 16.153 237.04 16.3337V16.3744C237.04 16.5371 237.148 16.7043 237.365 16.876C237.582 17.0387 237.839 17.1969 238.138 17.3505C238.544 17.5674 238.838 17.7708 239.019 17.9606C239.38 18.4667 239.561 18.9593 239.561 19.4383C239.561 19.5468 239.53 19.7728 239.466 20.1162C239.412 20.4597 239.182 20.8935 238.775 21.4177C238.368 21.9419 237.943 22.43 237.5 22.8819L237.148 23.2344C236.786 23.6321 236.606 23.9213 236.606 24.102C236.606 24.1653 236.624 24.215 236.66 24.2512C236.759 24.3596 236.945 24.4139 237.216 24.4139C237.333 24.4139 237.546 24.3913 237.853 24.3461C238.169 24.3009 238.594 24.2015 239.127 24.0478C239.67 23.8942 240.103 23.7676 240.429 23.6682C240.474 23.6501 240.51 23.6366 240.537 23.6275C240.917 23.501 241.265 23.3745 241.581 23.2479C242.105 23.031 242.571 22.8909 242.978 22.8277C243.05 22.8186 243.122 22.8141 243.195 22.8141C243.52 22.8141 243.823 22.9316 244.103 23.1666C244.356 23.4016 244.582 23.727 244.781 24.1427C244.943 24.4862 245.025 24.8296 245.025 25.1731C245.025 25.2454 245.007 25.4081 244.971 25.6611C244.943 25.9052 244.686 26.1401 244.198 26.3661C243.927 26.4746 243.655 26.5875 243.384 26.705C242.553 27.0666 241.676 27.3965 240.754 27.6947C239.887 27.9659 238.969 28.1692 238.002 28.3048C237.55 28.3681 237.103 28.3997 236.66 28.3997C236.172 28.3997 235.584 28.3409 234.897 28.2234C234.211 28.115 233.551 27.7806 232.918 27.2202C232.484 26.8406 232.159 26.3571 231.942 25.7696C231.815 25.4442 231.752 25.0827 231.752 24.685C231.752 24.3687 231.793 24.0297 231.874 23.6682C232.01 23.1169 232.231 22.5701 232.538 22.0278C232.855 21.4764 233.185 20.9974 233.528 20.5907ZM243.75 5.70483C243.57 5.89463 243.213 6.17934 242.679 6.55894C242.146 6.9295 241.626 7.28199 241.12 7.61641C240.777 7.84236 240.515 8.0186 240.334 8.14514C240.262 8.19033 240.189 8.21292 240.117 8.21292C240.054 8.21292 239.986 8.19485 239.914 8.1587C239.769 8.06831 239.633 7.94178 239.507 7.77909C239.38 7.61641 239.276 7.46728 239.195 7.3317L239.141 7.25036L239.127 7.2368C239.037 7.11027 238.987 7.02892 238.978 6.99277C238.969 6.94758 238.965 6.91595 238.965 6.89787C238.965 6.84364 238.983 6.78489 239.019 6.72163C239.082 6.64028 239.191 6.52731 239.344 6.38269C239.453 6.2652 239.593 6.11607 239.765 5.9353L241.798 3.84749L241.852 3.79326C241.916 3.72999 241.956 3.69384 241.974 3.6848C242.001 3.67576 242.024 3.67124 242.042 3.67124C242.078 3.67124 242.119 3.69384 242.164 3.73903C242.327 3.84749 242.526 4.03277 242.761 4.29488C242.996 4.55698 243.213 4.82361 243.411 5.09475C243.61 5.35686 243.723 5.56022 243.75 5.70483Z" fill="#35B6D2"/>
<path d="M226.729 23.0988C226.304 20.062 225.911 17.9651 225.55 16.8082C225.242 15.8683 224.967 15.3983 224.723 15.3983C224.668 15.3983 224.555 15.4751 224.384 15.6287C224.212 15.7734 224.022 16.4331 223.814 17.6081C223.606 18.774 223.448 20.1614 223.34 21.7702C223.24 23.3699 223.191 24.9471 223.191 26.5017V26.583C223.191 27.0259 223.114 27.3377 222.96 27.5185C222.806 27.6902 222.504 27.8303 222.052 27.9387C221.591 28.0562 221.098 28.115 220.574 28.115C220.312 28.115 219.905 28.0879 219.354 28.0336C218.812 27.9794 218.364 27.7173 218.012 27.2473C217.93 27.0575 217.89 26.705 217.89 26.1899C217.89 25.8012 217.926 25.1324 217.998 24.1834C218.07 23.2253 218.197 22.0504 218.378 20.6585C218.568 19.2666 218.712 18.3266 218.812 17.8386C218.974 17.0523 219.191 16.1982 219.462 15.2763C219.733 14.3453 220.072 13.4641 220.479 12.6326C220.895 11.8011 221.396 11.1368 221.984 10.6397C222.49 10.2058 223.082 9.90306 223.76 9.73134C223.977 9.67711 224.203 9.64999 224.438 9.64999C224.917 9.64999 225.418 9.76749 225.943 10.0025C227 10.5719 227.836 11.5164 228.451 12.836C229.065 14.1555 229.517 15.5745 229.806 17.0929C230.105 18.6113 230.308 19.9535 230.417 21.1194C230.498 21.9329 230.57 22.7508 230.633 23.5733V23.6411C230.633 24.2376 230.417 24.6579 229.983 24.9019C229.558 25.1459 229.088 25.268 228.573 25.268C228.555 25.268 228.406 25.268 228.125 25.268C227.854 25.268 227.597 25.1957 227.353 25.051C227.136 24.9064 226.991 24.7076 226.919 24.4545C226.846 24.2015 226.801 23.9077 226.783 23.5733C226.765 23.4197 226.747 23.2615 226.729 23.0988Z" fill="#35B6D2"/>
<path d="M205.505 20.5907C205.396 20.5094 205.292 20.4325 205.193 20.3602C204.895 20.1704 204.587 19.8722 204.271 19.4655C203.946 19.0316 203.72 18.4984 203.593 17.8657C203.557 17.6036 203.539 17.3505 203.539 17.1065C203.539 16.6817 203.611 16.2207 203.756 15.7236C203.9 15.2175 204.131 14.7294 204.447 14.2595C205.234 13.0483 206.237 12.0858 207.457 11.3718C208.686 10.6487 210.078 10.1471 211.633 9.86691L211.985 9.78557C212.265 9.71326 212.532 9.67259 212.785 9.66355H212.866C213.083 9.66355 213.278 9.72682 213.449 9.85335C213.793 10.1787 214.073 10.6758 214.29 11.3447C214.48 11.905 214.575 12.4654 214.575 13.0258C214.575 13.1342 214.57 13.2427 214.561 13.3511C214.498 14.0561 214.299 14.508 213.964 14.7069C213.639 14.8967 213.21 15.0096 212.677 15.0458C212.405 15.0729 212.112 15.1181 211.795 15.1814C210.792 15.3892 210.078 15.5881 209.653 15.7779C209.238 15.9677 209.025 16.153 209.016 16.3337V16.3744C209.016 16.5371 209.125 16.7043 209.341 16.876C209.558 17.0387 209.816 17.1969 210.114 17.3505C210.521 17.5674 210.815 17.7708 210.995 17.9606C211.357 18.4667 211.538 18.9593 211.538 19.4383C211.538 19.5468 211.506 19.7728 211.443 20.1162C211.389 20.4597 211.158 20.8935 210.751 21.4177C210.345 21.9419 209.92 22.43 209.477 22.8819L209.125 23.2344C208.763 23.6321 208.582 23.9213 208.582 24.102C208.582 24.1653 208.6 24.215 208.636 24.2512C208.736 24.3596 208.921 24.4139 209.192 24.4139C209.31 24.4139 209.522 24.3913 209.83 24.3461C210.146 24.3009 210.571 24.2015 211.104 24.0478C211.646 23.8942 212.08 23.7676 212.405 23.6682C212.451 23.6501 212.487 23.6366 212.514 23.6275C212.893 23.501 213.241 23.3745 213.558 23.2479C214.082 23.031 214.547 22.8909 214.954 22.8277C215.026 22.8186 215.099 22.8141 215.171 22.8141C215.496 22.8141 215.799 22.9316 216.079 23.1666C216.332 23.4016 216.558 23.727 216.757 24.1427C216.92 24.4862 217.001 24.8296 217.001 25.1731C217.001 25.2454 216.983 25.4081 216.947 25.6611C216.92 25.9052 216.662 26.1401 216.174 26.3661C215.903 26.4746 215.632 26.5875 215.361 26.705C214.529 27.0666 213.653 27.3965 212.731 27.6947C211.863 27.9659 210.946 28.1692 209.979 28.3048C209.527 28.3681 209.079 28.3997 208.636 28.3997C208.148 28.3997 207.561 28.3409 206.874 28.2234C206.187 28.115 205.527 27.7806 204.895 27.2202C204.461 26.8406 204.135 26.3571 203.919 25.7696C203.792 25.4442 203.729 25.0827 203.729 24.685C203.729 24.3687 203.769 24.0297 203.851 23.6682C203.986 23.1169 204.208 22.5701 204.515 22.0278C204.831 21.4764 205.161 20.9974 205.505 20.5907Z" fill="#35B6D2"/>
<path d="M198.706 23.0988C198.281 20.062 197.888 17.9651 197.526 16.8082C197.219 15.8683 196.943 15.3983 196.699 15.3983C196.645 15.3983 196.532 15.4751 196.36 15.6287C196.188 15.7734 195.999 16.4331 195.791 17.6081C195.583 18.774 195.425 20.1614 195.316 21.7702C195.217 23.3699 195.167 24.9471 195.167 26.5017V26.583C195.167 27.0259 195.09 27.3377 194.937 27.5185C194.783 27.6902 194.48 27.8303 194.028 27.9387C193.567 28.0562 193.075 28.115 192.551 28.115C192.288 28.115 191.882 28.0879 191.33 28.0336C190.788 27.9794 190.341 27.7173 189.988 27.2473C189.907 27.0575 189.866 26.705 189.866 26.1899C189.866 25.8012 189.902 25.1324 189.975 24.1834C190.047 23.2253 190.174 22.0504 190.354 20.6585C190.544 19.2666 190.689 18.3266 190.788 17.8386C190.951 17.0523 191.168 16.1982 191.439 15.2763C191.71 14.3453 192.049 13.4641 192.456 12.6326C192.871 11.8011 193.373 11.1368 193.961 10.6397C194.467 10.2058 195.059 9.90306 195.737 9.73134C195.953 9.67711 196.179 9.64999 196.414 9.64999C196.893 9.64999 197.395 9.76749 197.919 10.0025C198.977 10.5719 199.813 11.5164 200.427 12.836C201.042 14.1555 201.494 15.5745 201.783 17.0929C202.081 18.6113 202.285 19.9535 202.393 21.1194C202.474 21.9329 202.547 22.7508 202.61 23.5733V23.6411C202.61 24.2376 202.393 24.6579 201.959 24.9019C201.534 25.1459 201.065 25.268 200.549 25.268C200.531 25.268 200.382 25.268 200.102 25.268C199.831 25.268 199.573 25.1957 199.329 25.051C199.112 24.9064 198.968 24.7076 198.895 24.4545C198.823 24.2015 198.778 23.9077 198.76 23.5733C198.742 23.4197 198.724 23.2615 198.706 23.0988Z" fill="#35B6D2"/>
<path d="M173.597 11.2498H173.746C174.316 11.2498 174.74 11.4486 175.021 11.8463C175.31 12.244 175.5 12.732 175.59 13.3105C175.617 13.437 175.631 13.5364 175.631 13.6087C175.64 13.7081 175.658 13.7895 175.685 13.8528C175.721 13.907 175.807 13.9702 175.942 14.0426C176.033 14.0968 176.119 14.142 176.2 14.1781C176.327 14.2414 176.458 14.3137 176.593 14.395C177.343 14.8289 177.99 15.3847 178.532 16.0626C179.083 16.7314 179.436 17.4997 179.589 18.3673C179.625 18.5752 179.644 18.7831 179.644 18.991C179.644 19.6779 179.467 20.4054 179.115 21.1737C178.518 22.3758 177.614 23.4061 176.403 24.2647C175.192 25.1234 173.855 25.7651 172.39 26.1899C171.234 26.5243 170.108 26.6915 169.015 26.6915C168.716 26.6915 168.418 26.6779 168.12 26.6508C166.294 26.461 164.848 25.9097 163.782 24.9968C162.724 24.0749 162.114 22.9406 161.951 21.5939C161.924 21.3951 161.911 21.1917 161.911 20.9839C161.911 19.8089 162.286 18.5842 163.036 17.3099C164.084 15.6378 165.481 14.273 167.225 13.2156C168.228 12.619 169.2 12.1762 170.14 11.8869C171.08 11.5887 172.232 11.3763 173.597 11.2498ZM172.512 16.6862C171.193 16.9302 170.054 17.3867 169.096 18.0555C168.147 18.7153 167.51 19.3163 167.184 19.8586C166.859 20.3919 166.696 20.7896 166.696 21.0517C166.696 21.2505 166.76 21.4132 166.886 21.5397C167.23 21.8018 167.641 21.9781 168.12 22.0685C168.599 22.1588 169.042 22.204 169.448 22.204C169.584 22.204 169.72 22.1995 169.855 22.1905C170.877 22.1091 171.848 21.8651 172.77 21.4584C173.701 21.0517 174.424 20.5907 174.939 20.0755C175.346 19.6417 175.549 19.2666 175.549 18.9503V18.8689C175.504 18.5345 175.323 18.2453 175.007 18.0013C174.7 17.7482 174.356 17.5222 173.977 17.3234C173.66 17.1517 173.389 16.9845 173.163 16.8218L173.109 16.7676C173.046 16.7224 172.996 16.6907 172.96 16.6727C172.924 16.6455 172.878 16.6365 172.824 16.6455C172.77 16.6455 172.689 16.6546 172.58 16.6727C172.562 16.6727 172.54 16.6772 172.512 16.6862Z" fill="#35B6D2"/>
<path d="M148.59 8.42984C148.717 8.1135 149.069 7.91918 149.648 7.84688C149.901 7.81976 150.154 7.80621 150.407 7.80621C150.741 7.80621 151.139 7.84236 151.6 7.91466C152.061 7.97793 152.382 8.08639 152.563 8.24004C153.005 8.19485 153.43 8.17225 153.837 8.17225C155.41 8.17225 156.774 8.56089 157.931 9.33818C159.097 10.1155 159.951 11.2678 160.494 12.7953C160.936 14.0335 161.158 15.344 161.158 16.7269C161.158 17.0523 161.117 17.7392 161.036 18.7876C160.955 19.827 160.552 21.1194 159.829 22.665C159.106 24.2105 158.135 25.4352 156.914 26.339C156.146 26.8903 155.22 27.3332 154.135 27.6676C153.466 27.8755 152.82 27.9794 152.197 27.9794C151.808 27.9794 151.279 27.9071 150.61 27.7625C149.942 27.6179 149.395 27.0033 148.97 25.9187C148.03 23.1801 147.546 20.2789 147.519 17.2149V16.998C147.519 14.0064 147.876 11.1503 148.59 8.42984ZM152.807 23.4242C153.882 23.2163 154.732 22.7011 155.355 21.8786C155.988 21.0471 156.372 20.2337 156.508 19.4383C156.643 18.643 156.711 18.0103 156.711 17.5403C156.711 16.9528 156.648 16.3789 156.521 15.8185C156.286 14.8063 155.893 14.0561 155.342 13.568C154.79 13.08 154.185 12.836 153.525 12.836C153.263 12.836 152.983 12.8676 152.685 12.9309C152.459 14.0968 152.346 15.5067 152.346 17.1607C152.346 17.4951 152.35 17.8386 152.359 18.1911C152.413 20.306 152.563 22.0504 152.807 23.4242Z" fill="#35B6D2"/>
<path d="M131.318 11.2498H131.467C132.036 11.2498 132.461 11.4486 132.741 11.8463C133.031 12.244 133.22 12.732 133.311 13.3105C133.338 13.437 133.351 13.5364 133.351 13.6087C133.36 13.7081 133.379 13.7895 133.406 13.8528C133.442 13.907 133.528 13.9702 133.663 14.0426C133.754 14.0968 133.839 14.142 133.921 14.1781C134.047 14.2414 134.178 14.3137 134.314 14.395C135.064 14.8289 135.71 15.3847 136.253 16.0626C136.804 16.7314 137.156 17.4997 137.31 18.3673C137.346 18.5752 137.364 18.7831 137.364 18.991C137.364 19.6779 137.188 20.4054 136.836 21.1737C136.239 22.3758 135.335 23.4061 134.124 24.2647C132.913 25.1234 131.575 25.7651 130.111 26.1899C128.954 26.5243 127.829 26.6915 126.735 26.6915C126.437 26.6915 126.139 26.6779 125.841 26.6508C124.015 26.461 122.569 25.9097 121.502 24.9968C120.445 24.0749 119.835 22.9406 119.672 21.5939C119.645 21.3951 119.631 21.1917 119.631 20.9839C119.631 19.8089 120.007 18.5842 120.757 17.3099C121.805 15.6378 123.202 14.273 124.946 13.2156C125.949 12.619 126.921 12.1762 127.861 11.8869C128.801 11.5887 129.953 11.3763 131.318 11.2498ZM130.233 16.6862C128.914 16.9302 127.775 17.3867 126.817 18.0555C125.868 18.7153 125.231 19.3163 124.905 19.8586C124.58 20.3919 124.417 20.7896 124.417 21.0517C124.417 21.2505 124.48 21.4132 124.607 21.5397C124.95 21.8018 125.362 21.9781 125.841 22.0685C126.32 22.1588 126.763 22.204 127.169 22.204C127.305 22.204 127.44 22.1995 127.576 22.1905C128.597 22.1091 129.569 21.8651 130.491 21.4584C131.422 21.0517 132.145 20.5907 132.66 20.0755C133.067 19.6417 133.27 19.2666 133.27 18.9503V18.8689C133.225 18.5345 133.044 18.2453 132.728 18.0013C132.42 17.7482 132.077 17.5222 131.697 17.3234C131.381 17.1517 131.11 16.9845 130.884 16.8218L130.83 16.7676C130.766 16.7224 130.717 16.6907 130.681 16.6727C130.644 16.6455 130.599 16.6365 130.545 16.6455C130.491 16.6455 130.409 16.6546 130.301 16.6727C130.283 16.6727 130.26 16.6772 130.233 16.6862Z" fill="#35B6D2"/>
<path d="M114.337 22.3532C114.12 20.2744 113.804 18.9548 113.388 18.3944C113.162 18.0871 112.936 17.9335 112.71 17.9335C112.502 17.9335 112.231 18.1188 111.897 18.4893C111.571 18.8599 111.25 19.601 110.934 20.7127C110.627 21.8154 110.473 22.9949 110.473 24.2512C110.428 24.5042 110.396 24.7347 110.378 24.9426C110.342 25.3312 110.279 25.643 110.189 25.878C110.107 26.113 109.935 26.2802 109.673 26.3797C109.339 26.5062 108.991 26.5695 108.629 26.5695C108.584 26.5695 108.449 26.5695 108.223 26.5695C108.006 26.5604 107.703 26.5152 107.314 26.4339C106.98 26.3616 106.609 26.2396 106.203 26.0678C105.796 25.8871 105.502 25.6973 105.321 25.4984C105.222 25.3086 105.127 24.5404 105.037 23.1937C104.955 21.838 104.883 20.2563 104.82 18.4487C104.757 16.632 104.707 14.9373 104.671 13.3647C104.635 11.792 104.612 10.6894 104.603 10.0567C104.603 9.95729 104.598 9.85787 104.589 9.75845C104.58 9.68615 104.576 9.61384 104.576 9.54154C104.576 9.44212 104.585 9.33366 104.603 9.21616C104.63 9.09867 104.72 8.99473 104.874 8.90435C105.227 8.74166 105.746 8.63772 106.433 8.59253C106.659 8.57445 106.885 8.56541 107.111 8.56541C107.563 8.56541 108.06 8.60609 108.602 8.68743C109.154 8.75974 109.547 8.9179 109.782 9.16193C109.854 9.27943 109.89 9.53702 109.89 9.9347C109.89 10.0974 109.877 10.4092 109.85 10.8701C109.822 11.3311 109.768 11.9502 109.687 12.7275C109.597 13.5771 109.547 14.1826 109.538 14.5442C109.565 14.5261 109.587 14.508 109.606 14.4899C110.076 14.0651 110.645 13.6765 111.314 13.324C111.793 13.08 112.34 12.958 112.954 12.958C113.216 12.958 113.492 12.9806 113.781 13.0258C115.137 13.3059 116.158 14.0335 116.845 15.2085C117.541 16.3834 118.007 17.7753 118.242 19.3841C118.422 20.6856 118.513 21.9826 118.513 23.275C118.513 23.5914 118.495 24.2286 118.458 25.1866C118.431 26.1356 118.345 27.1795 118.201 28.3183C118.183 28.4901 118.169 28.6482 118.16 28.7929C118.133 29.1725 118.07 29.4888 117.97 29.7419C117.88 30.004 117.659 30.2073 117.306 30.3519C116.981 30.4875 116.637 30.5553 116.276 30.5553C116.194 30.5553 116.018 30.5463 115.747 30.5282C115.476 30.5101 115.164 30.4062 114.812 30.2164C114.504 30.0356 114.333 29.8006 114.296 29.5114C114.278 29.3758 114.269 29.2357 114.269 29.0911C114.269 28.9013 114.283 28.7025 114.31 28.4946C114.328 28.3138 114.342 28.124 114.351 27.9252C114.414 27.0214 114.445 26.1221 114.445 25.2273C114.445 24.2692 114.409 23.3112 114.337 22.3532Z" fill="#35B6D2"/>
<path d="M100.502 10.6668C100.646 10.6397 100.768 10.6261 100.868 10.6261C100.922 10.6261 100.99 10.6352 101.071 10.6532C101.161 10.6623 101.265 10.7436 101.383 10.8973C101.645 11.2136 101.857 11.6203 102.02 12.1174C102.183 12.6145 102.287 13.08 102.332 13.5138C102.359 13.7217 102.372 13.9251 102.372 14.1239C102.372 14.6481 102.269 15.1226 102.061 15.5474C101.925 15.7462 101.731 15.8773 101.478 15.9406C101.234 16.0038 100.958 16.0445 100.651 16.0626C100.524 16.0807 100.393 16.0942 100.258 16.1033C99.3447 16.2027 98.4996 16.4286 97.7224 16.7811C96.9541 17.1246 96.3757 17.6307 95.987 18.2995C95.752 18.7063 95.6345 19.1853 95.6345 19.7366C95.6345 20.0891 95.6797 20.4687 95.7701 20.8754C95.9328 21.499 96.2039 22.0459 96.5835 22.5158C96.9631 22.9858 97.3834 23.3428 97.8444 23.5869C98.6126 23.9665 99.3221 24.1563 99.9729 24.1563C99.9819 24.1563 100.154 24.1518 100.488 24.1427C100.822 24.1337 101.252 24.0659 101.776 23.9394C102.192 23.8399 102.562 23.7902 102.888 23.7902C103.204 23.7902 103.475 23.9077 103.701 24.1427C103.927 24.4048 104.117 24.7709 104.271 25.2409C104.388 25.5933 104.447 25.9323 104.447 26.2576C104.447 26.3751 104.429 26.5695 104.393 26.8406C104.356 27.1118 104.144 27.3196 103.755 27.4642C103.249 27.6179 102.716 27.7535 102.156 27.871C102.056 27.8981 101.961 27.9207 101.871 27.9387C101.066 28.1105 100.294 28.1963 99.5526 28.1963C98.6126 28.1963 97.5687 28.002 96.4209 27.6134C95.282 27.2247 94.2201 26.4791 93.2349 25.3764C92.2588 24.2738 91.5899 23.0129 91.2284 21.5939C91.0477 20.898 90.9573 20.2066 90.9573 19.5197C90.9573 18.7876 91.1019 17.8793 91.3911 16.7947C91.6803 15.7101 92.4576 14.5848 93.723 13.4189C94.6449 12.5874 95.6255 11.9864 96.6649 11.6158C97.7043 11.2452 98.9832 10.9289 100.502 10.6668Z" fill="#35B6D2"/>
<path d="M79.8876 20.5907C79.7791 20.5094 79.6752 20.4325 79.5757 20.3602C79.2775 20.1704 78.9702 19.8722 78.6538 19.4655C78.3285 19.0316 78.1025 18.4984 77.976 17.8657C77.9398 17.6036 77.9218 17.3505 77.9218 17.1065C77.9218 16.6817 77.9941 16.2207 78.1387 15.7236C78.2833 15.2175 78.5138 14.7294 78.8301 14.2595C79.6164 13.0483 80.6196 12.0858 81.8398 11.3718C83.069 10.6487 84.4609 10.1471 86.0154 9.86691L86.3679 9.78557C86.6481 9.71326 86.9147 9.67259 87.1678 9.66355H87.2491C87.4661 9.66355 87.6604 9.72682 87.8321 9.85335C88.1756 10.1787 88.4557 10.6758 88.6727 11.3447C88.8625 11.905 88.9574 12.4654 88.9574 13.0258C88.9574 13.1342 88.9528 13.2427 88.9438 13.3511C88.8805 14.0561 88.6817 14.508 88.3473 14.7069C88.0219 14.8967 87.5926 15.0096 87.0593 15.0458C86.7882 15.0729 86.4945 15.1181 86.1781 15.1814C85.1749 15.3892 84.4609 15.5881 84.0361 15.7779C83.6203 15.9677 83.4079 16.153 83.3989 16.3337V16.3744C83.3989 16.5371 83.5073 16.7043 83.7243 16.876C83.9412 17.0387 84.1988 17.1969 84.497 17.3505C84.9037 17.5674 85.1975 17.7708 85.3783 17.9606C85.7398 18.4667 85.9205 18.9593 85.9205 19.4383C85.9205 19.5468 85.8889 19.7728 85.8256 20.1162C85.7714 20.4597 85.5409 20.8935 85.1342 21.4177C84.7275 21.9419 84.3027 22.43 83.8598 22.8819L83.5073 23.2344C83.1458 23.6321 82.9651 23.9213 82.9651 24.102C82.9651 24.1653 82.9831 24.215 83.0193 24.2512C83.1187 24.3596 83.304 24.4139 83.5751 24.4139C83.6926 24.4139 83.905 24.3913 84.2123 24.3461C84.5287 24.3009 84.9535 24.2015 85.4867 24.0478C86.029 23.8942 86.4628 23.7676 86.7882 23.6682C86.8334 23.6501 86.8695 23.6366 86.8967 23.6275C87.2763 23.501 87.6242 23.3745 87.9406 23.2479C88.4648 23.031 88.9303 22.8909 89.337 22.8277C89.4093 22.8186 89.4816 22.8141 89.5539 22.8141C89.8793 22.8141 90.182 22.9316 90.4622 23.1666C90.7153 23.4016 90.9412 23.727 91.1401 24.1427C91.3028 24.4862 91.3841 24.8296 91.3841 25.1731C91.3841 25.2454 91.366 25.4081 91.3299 25.6611C91.3028 25.9052 91.0452 26.1401 90.5571 26.3661C90.286 26.4746 90.0148 26.5875 89.7437 26.705C88.9122 27.0666 88.0355 27.3965 87.1136 27.6947C86.2459 27.9659 85.3285 28.1692 84.3615 28.3048C83.9095 28.3681 83.4622 28.3997 83.0193 28.3997C82.5312 28.3997 81.9437 28.3409 81.2568 28.2234C80.5699 28.115 79.9102 27.7806 79.2775 27.2202C78.8436 26.8406 78.5183 26.3571 78.3014 25.7696C78.1748 25.4442 78.1116 25.0827 78.1116 24.685C78.1116 24.3687 78.1522 24.0297 78.2336 23.6682C78.3691 23.1169 78.5906 22.5701 78.8979 22.0278C79.2142 21.4764 79.5441 20.9974 79.8876 20.5907Z" fill="#35B6D2"/>
<path d="M69.0889 22.9361C69.098 24.0026 69.1748 25.0691 69.3194 26.1356C69.3284 26.217 69.3375 26.3028 69.3465 26.3932V26.4746C69.3465 26.9626 69.0889 27.3241 68.5737 27.5591C68.0676 27.7851 67.5118 27.8981 66.9062 27.8981C66.3006 27.8981 65.8849 27.8077 65.6589 27.6269C65.5595 27.4823 65.4465 27.0801 65.32 26.4203C65.2025 25.7515 65.094 25.0691 64.9946 24.3732C64.8952 23.6772 64.8365 23.2208 64.8184 23.0039C64.7642 22.5249 64.6873 21.5488 64.5879 20.0755C64.4975 18.6023 64.4252 16.989 64.371 15.2356C64.3439 14.3589 64.3303 13.5319 64.3303 12.7546C64.3303 11.9864 64.3529 11.1051 64.3981 10.1109C64.4433 9.1077 64.5834 8.50667 64.8184 8.30783C64.8997 8.2536 65.0082 8.20841 65.1438 8.17225C65.2793 8.1361 65.4104 8.10899 65.5369 8.09091C65.9165 8.03668 66.2916 8.00957 66.6622 8.00957C67.0689 8.00957 67.4666 8.0412 67.8552 8.10447C67.9275 8.1135 68.0089 8.12254 68.0992 8.13158C68.8584 7.96889 69.577 7.88755 70.2548 7.88755C71.2671 7.88755 72.3381 8.12254 73.4679 8.59253C74.6067 9.06251 75.5151 9.92566 76.1929 11.182C76.6177 11.9864 76.8301 12.8631 76.8301 13.8121C76.8301 14.3544 76.7036 15.1768 76.4505 16.2795C76.1974 17.3731 75.2032 18.7514 73.4679 20.4145C73.8746 21.0562 74.3582 21.7883 74.9185 22.6107C75.4789 23.4242 75.9896 24.1653 76.4505 24.8341C76.559 25.0149 76.6132 25.2047 76.6132 25.4035C76.6132 25.6928 76.4641 26.0543 76.1658 26.4881C75.8766 26.9129 75.4428 27.2609 74.8643 27.532C74.6022 27.6586 74.3582 27.7218 74.1322 27.7218C73.8611 27.7218 73.617 27.6269 73.4001 27.4371C72.5777 26.5875 71.7642 25.7379 70.9598 24.8884L69.0889 22.9361ZM69.5499 13.3782C69.4233 13.8844 69.333 14.5577 69.2787 15.3983C69.2335 16.2388 69.2019 17.0071 69.1838 17.703C69.1748 17.8928 69.1703 18.0645 69.1703 18.2182C69.5679 18.0645 70.0379 17.694 70.5802 17.1065C71.1225 16.51 71.5112 15.9586 71.7461 15.4525C71.9902 14.9373 72.1122 14.5442 72.1122 14.273C72.1122 14.0109 72.0399 13.785 71.8953 13.5952C71.7145 13.3602 71.3485 13.2427 70.7971 13.2427C70.4537 13.2427 70.0379 13.2879 69.5499 13.3782Z" fill="#35B6D2"/>
<path d="M54.2908 26.3661V26.7864C54.2908 27.0394 54.2863 27.3332 54.2773 27.6676C54.2773 27.993 54.2682 28.2912 54.2502 28.5624C54.2411 28.8335 54.2231 29.0007 54.1959 29.064C54.0875 29.2809 53.866 29.4526 53.5316 29.5792C53.2063 29.7057 52.8402 29.787 52.4335 29.8232C52.316 29.8322 52.194 29.8368 52.0674 29.8368C51.7963 29.8368 51.5071 29.8096 51.1998 29.7554C50.8925 29.7012 50.6485 29.5882 50.4677 29.4165C50.4044 29.3532 50.3638 29.2854 50.3457 29.2131C50.3276 29.1499 50.314 29.064 50.305 28.9555V28.8877C50.1875 26.9536 50.0881 25.033 50.0067 23.1259C49.9164 20.8302 49.7943 18.539 49.6407 16.2524C49.478 13.9657 49.2295 11.6565 48.895 9.32462C48.895 9.28846 48.8905 9.25231 48.8815 9.21616C48.8634 9.12578 48.8499 9.0354 48.8408 8.94501V8.87723C48.8408 8.81396 48.8499 8.75973 48.8679 8.71454C48.9764 8.5157 49.234 8.33946 49.6407 8.18581C50.0384 8.02312 50.5038 7.89207 51.0371 7.79265C51.5252 7.70227 52.0042 7.65707 52.4742 7.65707C52.5194 7.65707 52.682 7.66159 52.9622 7.67063C53.2424 7.67063 53.5452 7.73842 53.8706 7.87399C54.0875 7.97341 54.2276 8.09543 54.2908 8.24004C54.3541 8.37561 54.3903 8.54733 54.3993 8.75521C54.4445 9.99344 54.4806 11.2272 54.5078 12.4563C54.5258 13.4867 54.5529 14.517 54.5891 15.5474C55.4116 15.2763 56.2069 15.1407 56.9752 15.1407C57.2373 15.1407 57.6802 15.1814 58.3038 15.2627C58.9365 15.344 59.6505 15.6604 60.4458 16.2117C61.2412 16.754 61.8919 17.4725 62.3981 18.3673C62.9042 19.2621 63.2206 20.2924 63.3471 21.4584C63.3742 21.7657 63.3878 22.0639 63.3878 22.3531C63.3878 23.275 63.2206 24.1427 62.8861 24.9561C62.5517 25.7605 62.032 26.4248 61.3271 26.9491C60.6221 27.4733 59.8403 27.7986 58.9817 27.9252C58.6924 27.9704 58.4032 27.993 58.114 27.993C57.5627 27.993 56.9435 27.8845 56.2566 27.6676C55.5697 27.4507 54.9145 27.0168 54.2908 26.3661ZM54.9416 21.1601C55.4658 22.0187 55.9539 22.6017 56.4058 22.909C56.7221 23.1259 57.0475 23.2344 57.3819 23.2344C57.4361 23.2344 57.5762 23.2208 57.8022 23.1937C58.0281 23.1666 58.236 23.0084 58.4258 22.7192C58.6066 22.43 58.6924 22.1091 58.6834 21.7566C58.6834 21.3951 58.5569 21.0878 58.3038 20.8347C58.0598 20.5997 57.6576 20.4868 57.0972 20.4958C56.5459 20.4958 55.8273 20.7172 54.9416 21.1601Z" fill="#35B6D2"/>
<path d="M16.9212 20.2111C16.9212 18.1087 15.2108 16.3982 13.1084 16.3982C11.0059 16.3982 9.29541 18.1087 9.29541 20.2111H11.6096C11.6096 19.3847 12.282 18.7124 13.1084 18.7124C13.9347 18.7124 14.607 19.3847 14.607 20.2111H16.9212Z" fill="#35B6D2"/>
<path d="M26.3875 16.3981C24.285 16.3981 22.5746 18.1086 22.5746 20.211H24.8888C24.8888 19.3846 25.5611 18.7124 26.3875 18.7124C27.2138 18.7124 27.8862 19.3846 27.8862 20.211H30.2004C30.2004 18.1086 28.49 16.3981 26.3875 16.3981Z" fill="#35B6D2"/>
<path d="M19.748 26.9825C18.2849 26.9825 16.9131 26.1978 16.1676 24.9347L14.1746 26.1107C15.3342 28.0759 17.4698 29.2966 19.7479 29.2966C22.0261 29.2966 24.1617 28.0759 25.3213 26.1107L23.3282 24.9347C22.5829 26.1978 21.211 26.9825 19.748 26.9825Z" fill="#35B6D2"/>
<path d="M37.9902 16.1125C37.2532 15.3763 36.3276 14.8896 35.3231 14.6989C33.1536 7.99488 26.8602 3.37904 19.7479 3.37904H18.9721C17.1091 3.37904 15.5934 1.86327 15.5934 0.000305176H13.2792C13.2792 1.2645 13.6939 2.43331 14.3937 3.37904H13.6605C11.7975 3.37904 10.2818 1.86327 10.2818 0.000305176H7.96756C7.96756 2.51472 9.60666 4.65213 11.8719 5.40381C8.28923 7.37347 5.48109 10.6562 4.17287 14.6989C3.16829 14.8896 2.24255 15.3765 1.50492 16.1133C0.534449 17.0848 0 18.3757 0 19.7482C0 21.1039 0.522975 22.3829 1.47268 23.3498C2.21492 24.1055 3.15229 24.6041 4.17287 24.7976C6.3422 31.5017 12.6355 36.1174 19.7479 36.1174C26.8603 36.1174 33.1536 31.5017 35.323 24.7976C36.3436 24.6041 37.2809 24.1055 38.0232 23.3498C38.9729 22.3829 39.4959 21.1039 39.4959 19.7482C39.4959 18.3757 38.9614 17.0848 37.9902 16.1125ZM34.4113 22.5732L33.5429 22.5897L33.3162 23.4281C31.6642 29.5368 26.0847 33.8031 19.7479 33.8031C13.411 33.8031 7.83159 29.5368 6.17969 23.4281L5.95294 22.5897L5.08457 22.5732C3.55693 22.5444 2.31413 21.2771 2.31413 19.7482C2.31413 18.9934 2.60816 18.2833 3.14113 17.7497C3.6609 17.2305 4.35107 16.9369 5.08433 16.9232L5.95286 16.9068L6.17961 16.0683C7.83159 9.9597 13.411 5.69332 19.7479 5.69332C21.8394 5.69332 23.541 7.39486 23.541 9.48637C23.541 11.5779 21.8394 13.2795 19.7479 13.2795C17.6564 13.2795 15.9549 11.578 15.9549 9.48645H13.6407C13.6407 12.854 16.3804 15.5937 19.7479 15.5937C23.1155 15.5937 25.8552 12.854 25.8552 9.48645C25.8552 8.52808 25.6327 7.62099 25.2376 6.81295C29.1189 8.46391 32.1673 11.8204 33.3162 16.0684L33.5429 16.9069L34.4114 16.9232C35.1448 16.937 35.8349 17.2305 36.3538 17.7488C36.8877 18.2834 37.1817 18.9934 37.1817 19.7483C37.1817 21.2772 35.9388 22.5444 34.4113 22.5732Z" fill="#35B6D2"/>
</svg>
